<svg width="30" height="27" viewBox="0 0 30 27" fill="none" xmlns="http://www.w3.org/2000/svg">
<path d="M13.7657 4.03208C13.6654 4.2251 13.7 4.46866 13.8659 4.62562L14.215 4.9561L14.5782 5.29979L14.9219 4.93664L15.2524 4.58746C15.4093 4.42162 15.4305 4.17652 15.3198 3.98931C15.5128 4.08961 15.7563 4.05495 15.9133 3.88911L16.2438 3.53993C16.5744 3.19059 16.9314 2.88202 17.3085 2.61416C17.5291 2.45742 17.5843 2.15443 17.4358 1.93047C18.017 1.57242 18.6362 1.29845 19.2757 1.10903C19.3435 1.36911 19.6061 1.53017 19.8701 1.47031C20.7908 1.26155 21.7459 1.23526 22.6767 1.39307C22.9436 1.43831 23.197 1.26305 23.2503 0.999637C23.8993 1.15359 24.5327 1.39309 25.1327 1.71863C24.9967 1.95042 25.0685 2.24992 25.2974 2.39429C25.6887 2.641 26.0621 2.92947 26.4114 3.26008C26.7607 3.5907 27.0693 3.94765 27.3372 4.32476C27.4939 4.54542 27.7969 4.60059 28.0208 4.4521C28.3789 5.03327 28.6529 5.6525 28.8423 6.29204C28.5822 6.3598 28.4211 6.62237 28.481 6.88638C28.6898 7.80715 28.7161 8.7622 28.5583 9.69305C28.513 9.95995 28.6883 10.2133 28.9517 10.2666C28.7977 10.9156 28.5582 11.549 28.2327 12.149C28.0009 12.013 27.7014 12.0848 27.557 12.3137C27.3103 12.705 27.0219 13.0784 26.6912 13.4277L25.6998 14.4752C25.51 14.6758 25.5187 14.9923 25.7193 15.1821L24.4238 16.5509C24.2233 16.361 23.9068 16.3697 23.717 16.5703L21.7341 18.6654C21.5443 18.8659 21.553 19.1824 21.7536 19.3722L20.4581 20.741C20.2576 20.5512 19.9411 20.5599 19.7513 20.7605L17.7684 22.8555C17.5786 23.0561 17.5873 23.3726 17.7879 23.5624L16.4924 24.9312C16.2919 24.7413 15.9754 24.7501 15.7856 24.9506L15.1379 25.635L14.4535 24.9873C14.2529 24.7975 13.9365 24.8062 13.7467 25.0067L12.3779 23.7113C12.5677 23.5107 12.559 23.1943 12.3584 23.0044L10.2633 21.0216C10.0628 20.8318 9.74631 20.8405 9.5565 21.0411L8.18771 19.7456C8.37753 19.545 8.36882 19.2286 8.16826 19.0388L6.07318 17.0559C5.87262 16.8661 5.55616 16.8748 5.36634 17.0754L3.99756 15.7799C4.18737 15.5794 4.17866 15.2629 3.9781 15.0731L2.93056 14.0817C2.58123 13.751 2.27266 13.3941 2.0048 13.017C1.84806 12.7963 1.54507 12.7411 1.32111 12.8896C0.963062 12.3085 0.689084 11.6892 0.499666 11.0497C0.75975 10.9819 0.920812 10.7194 0.860952 10.4554C0.652184 9.53459 0.625898 8.57954 0.783705 7.64869C0.828952 7.38179 0.653691 7.12847 0.390275 7.07512C0.544229 6.42613 0.783731 5.79276 1.10927 5.19278C1.34106 5.32873 1.64056 5.25698 1.78493 5.02803C2.03163 4.63676 2.3201 4.26338 2.65072 3.91405C2.98134 3.56471 3.33829 3.25614 3.71539 2.98829C3.93606 2.83154 3.99123 2.52855 3.84274 2.30459C4.4239 1.94654 5.04314 1.67257 5.68268 1.48315C5.75043 1.74323 6.01301 1.90429 6.27702 1.84443C7.19778 1.63567 8.15283 1.60938 9.08369 1.76719C9.35059 1.81243 9.60391 1.63717 9.65726 1.37376C10.3062 1.52771 10.9396 1.76721 11.5396 2.09275C11.4036 2.32454 11.4754 2.62404 11.7044 2.76841C12.0956 3.01511 12.469 3.30358 12.8183 3.6342L13.1675 3.96468C13.3334 4.12164 13.5785 4.14285 13.7657 4.03208Z" fill="#ED4743" stroke="#113F75" stroke-linecap="round" stroke-dasharray="3 3"/>
</svg>
