<svg width="250" height="71" viewBox="0 0 250 71" fill="none" xmlns="http://www.w3.org/2000/svg">
<path d="M109.969 32.4039V29.1276H106.914V32.4039V35.6803H109.969V32.4039Z" fill="white"/>
<path d="M25.797 27.9704L23.6356 25.6533L21.4741 27.9676L23.6356 30.2848L25.8022 32.6019L27.9637 30.2904L30.1252 27.976L27.9585 25.656L25.797 27.9704Z" fill="white"/>
<path d="M106.914 38.9595V42.2358H103.859H100.802V38.9595H97.7446H94.6899V42.2358V45.5122H97.7446V48.7886H100.802V52.0677H103.859H106.914V48.7886H109.969V45.5122H113.023V42.2358V38.9595H109.969H106.914Z" fill="white"/>
<path d="M100.802 32.4039V29.1276H97.7446V32.4039V35.6803H100.802V32.4039Z" fill="white"/>
<path d="M51.2603 34.3837V31.1018H54.3254V27.8198H48.1978V34.3837H51.2603Z" fill="white"/>
<path d="M173.458 34.3837V31.1018H176.523V27.8198H170.393V34.3837H173.458Z" fill="white"/>
<path d="M128.88 31.1018H131.945V27.8198H125.815V34.3837H128.88V31.1018Z" fill="white"/>
<path d="M218.036 34.3837V31.1018H221.099V27.8198H214.971V34.3837H218.036Z" fill="white"/>
<path d="M78.8464 24.5379H48.1979V27.8198H54.3255V31.1018H51.2604V34.3837H48.1979V27.8198H45.1328V60.6365H48.1979V63.9184H78.8464V60.6365H81.9115V54.0726H78.8464V50.7907H63.5208V47.5087H78.8464V44.2268H81.9115V40.9448H78.8464V37.6629H63.5208V34.3837H78.8464V31.1018H81.9115V27.8198H78.8464V24.5379Z" fill="#113F75"/>
<path d="M156.464 24.5379H125.815V27.8198H131.945V31.1018H128.88V34.3837H125.815V37.6629H138.076V40.9448H135.01V44.2268H131.945V47.5087H128.88V50.7907H125.815V54.0726H122.75V60.6365H125.815V63.9184H156.464V60.6365H159.529V50.7907H156.464V47.5087H147.268V44.2268H150.333V40.9448H153.398V37.6629H156.464V34.3837H159.529V27.8198H156.464V24.5379Z" fill="#113F75"/>
<path d="M125.815 27.8198H122.75V34.3837H125.815V27.8198Z" fill="#113F75"/>
<path d="M201.042 24.5379H170.393V27.8198H176.523V31.1018H173.458V34.3837H170.393V27.8198H167.328V60.6365H170.393V63.9184H201.042V60.6365H204.107V54.0726H201.042V50.7907H185.719V47.5087H201.042V44.2268H204.107V40.9448H201.042V37.6629H185.719V34.3837H201.042V31.1018H204.107V27.8198H201.042V24.5379Z" fill="#113F75"/>
<path d="M245.62 34.3837V31.1018H248.685V27.8198H245.62V24.5379H214.971V27.8198H221.099V31.1018H218.036V34.3837H214.971V27.8198H211.906V60.6365H214.971V63.9184H245.62V60.6365H248.685V54.0726H245.62V50.7907H230.294V47.5087H245.62V44.2268H248.685V40.9448H245.62V37.6629H230.294V34.3837H245.62Z" fill="#113F75"/>
<path d="M35.0285 24.5379H7.44515V31.1018H1.31494V40.9476H4.38005V44.2296H25.8358V47.5115H4.38005V50.7935H1.31494V60.6393H4.38005V63.9212H31.9634V60.6393H35.0285V57.3573H38.0936V40.9504H35.0285V37.6685H19.7056V34.3865H35.0285V31.1046H38.0936V27.8226H35.0285V24.5407V24.5379ZM27.9634 30.2904L25.8019 32.6047L23.6353 30.2848L21.4712 27.9676L23.6326 25.6533L25.7967 27.9704L27.9582 25.6561L30.1248 27.976L27.9634 30.2904Z" fill="#113F75"/>
<path d="M93.1642 19.3821H96.2189V22.6585H99.2736H102.328H105.386H108.443V19.3821H111.498V16.1058H114.555V12.8294H111.498H108.443V16.1058H105.386V12.8294H108.443V9.55023H105.386V6.27386H102.328H99.2736V9.55023H96.2189V12.8294H99.2736V16.1058H96.2189V12.8294H93.1642H90.1069V16.1058H93.1642V19.3821Z" fill="#87BF25"/>
<path d="M114.555 27.87H111.497V24.5909H93.1615V27.87H90.1042V31.1464H87.0469V47.531H90.1042V54.0865H93.1615V57.3629H96.2187V60.6393H99.2708V63.9184H105.383V60.6393H108.44V57.3629H111.497V54.0865H114.555V47.531H117.612V31.1464H114.555V27.87V27.87ZM106.914 32.404V29.1276H109.966V35.6803H106.914V32.404ZM97.7448 32.404V29.1276H100.802V35.6803H97.7448V32.404ZM113.023 42.2359V45.5122H109.966V48.7886H106.914V52.0677H100.802V48.7886H97.7448V45.5122H94.6875V38.9595H100.799V42.2359H106.911V38.9595H113.021V42.2359H113.023Z" fill="#ED4743"/>
</svg>
