<svg width="30" height="27" viewBox="0 0 30 27" fill="none" xmlns="http://www.w3.org/2000/svg">
<path d="M25.1327 1.71863C24.5327 1.39309 23.8993 1.15359 23.2503 0.999636C23.197 1.26305 22.9436 1.43831 22.6767 1.39307C21.7459 1.23526 20.7908 1.26154 19.8701 1.47031C19.6061 1.53017 19.3435 1.36911 19.2757 1.10903C18.6362 1.29845 18.017 1.57242 17.4358 1.93047C17.5843 2.15443 17.5291 2.45742 17.3085 2.61416C16.9314 2.88202 16.5744 3.19059 16.2438 3.53993L15.9133 3.88911C15.7563 4.05495 15.5128 4.08961 15.3198 3.98931C15.4305 4.17652 15.4093 4.42162 15.2524 4.58746L14.9219 4.93664L14.5782 5.29979L14.215 4.9561L13.8659 4.62563C13.7 4.46866 13.6654 4.2251 13.7657 4.03208C13.5785 4.14285 13.3334 4.12164 13.1675 3.96468L12.8183 3.6342C12.469 3.30358 12.0956 3.01511 11.7044 2.76841C11.4754 2.62404 11.4036 2.32454 11.5396 2.09275C10.9396 1.76721 10.3062 1.52771 9.65726 1.37376C9.60391 1.63717 9.35059 1.81243 9.08369 1.76719C8.15283 1.60938 7.19778 1.63567 6.27702 1.84443C6.01301 1.90429 5.75043 1.74323 5.68268 1.48315C5.04314 1.67257 4.4239 1.94654 3.84274 2.30459C3.99123 2.52855 3.93606 2.83154 3.71539 2.98829C3.33829 3.25614 2.98134 3.56471 2.65072 3.91405C2.3201 4.26338 2.03163 4.63676 1.78493 5.02803C1.64056 5.25698 1.34106 5.32873 1.10927 5.19278C0.783731 5.79276 0.544229 6.42613 0.390275 7.07512C0.653691 7.12847 0.828952 7.38179 0.783705 7.64869C0.625898 8.57954 0.652184 9.53459 0.860952 10.4554C0.920812 10.7194 0.75975 10.9819 0.499666 11.0497C0.689084 11.6892 0.963062 12.3085 1.32111 12.8896C1.54507 12.7411 1.84806 12.7963 2.0048 13.017C2.27266 13.3941 2.58123 13.751 2.93056 14.0817L3.9781 15.0731C4.17866 15.2629 4.18737 15.5794 3.99756 15.7799L5.36634 17.0754C5.55616 16.8748 5.87262 16.8661 6.07318 17.0559L8.16826 19.0388C8.36882 19.2286 8.37753 19.545 8.18771 19.7456L9.5565 21.0411C9.74631 20.8405 10.0628 20.8318 10.2633 21.0216L12.3584 23.0044C12.559 23.1943 12.5677 23.5107 12.3779 23.7113L13.7467 25.0067C13.9365 24.8062 14.2529 24.7975 14.4535 24.9873L15.1379 25.635L15.7856 24.9506C15.9754 24.7501 16.2919 24.7413 16.4924 24.9312L17.7879 23.5624C17.5873 23.3726 17.5786 23.0561 17.7684 22.8555L19.7513 20.7605C19.9411 20.5599 20.2576 20.5512 20.4581 20.741L21.7536 19.3722C21.553 19.1824 21.5443 18.8659 21.7341 18.6654L23.717 16.5703C23.9068 16.3697 24.2233 16.361 24.4238 16.5509L25.7193 15.1821C25.5187 14.9923 25.51 14.6758 25.6998 14.4752L26.6912 13.4277C27.0219 13.0784 27.3103 12.705 27.557 12.3137C27.7014 12.0848 28.0009 12.013 28.2327 12.149C28.5582 11.549 28.7977 10.9156 28.9517 10.2666C28.6883 10.2133 28.513 9.95995 28.5583 9.69305C28.7161 8.76219 28.6898 7.80715 28.481 6.88638C28.4211 6.62237 28.5822 6.3598 28.8423 6.29204C28.6529 5.6525 28.3789 5.03327 28.0208 4.4521C27.7969 4.60059 27.4939 4.54542 27.3372 4.32475C27.0693 3.94765 26.7607 3.5907 26.4114 3.26008C26.0621 2.92947 25.6887 2.641 25.2974 2.39429C25.0685 2.24992 24.9967 1.95042 25.1327 1.71863Z" fill="white" stroke="#113F75" stroke-linecap="round" stroke-dasharray="3 3"/>
</svg>
