<svg width="99" height="98" viewBox="0 0 99 98" fill="none" xmlns="http://www.w3.org/2000/svg">
<path d="M50.6374 12.7615C53.2924 10.0664 57.8207 10.8448 59.4234 14.2717C60.611 16.8112 63.5747 18.0153 66.2134 17.0684C69.7499 15.7993 73.5245 18.4338 73.4678 22.1907C73.4256 24.9841 75.529 27.3447 78.3088 27.6236L78.4493 27.6377C82.1745 28.0115 84.363 32.0091 82.6708 35.3487C81.4104 37.8359 82.3046 40.8888 84.6906 42.3317C87.9016 44.2737 88.183 48.8641 85.1965 51.1363C82.975 52.8265 82.4387 55.9468 83.9682 58.2818C86.0246 61.4208 84.2265 65.6538 80.5513 66.412C77.8205 66.9755 75.9582 69.5545 76.3157 72.3198C76.7956 76.0328 73.3978 79.0701 69.7616 78.1785L69.6245 78.1449C66.9112 77.4796 64.1402 79.0023 63.2472 81.6495C62.0461 85.2097 57.6085 86.4326 54.6987 84.0553C52.5277 82.2817 49.332 82.427 47.3646 84.4241C44.7096 87.1193 40.1812 86.3409 38.5786 82.9139C37.391 80.3744 34.4272 79.1703 31.7886 80.1172C28.252 81.3864 24.4775 78.7519 24.5342 74.9949C24.5764 72.2015 22.4729 69.8409 19.6932 69.562L19.5526 69.5479C15.8275 69.1741 13.6389 65.1766 15.3312 61.837C16.5915 59.3497 15.6973 56.2969 13.3114 54.8539C10.1003 52.9119 9.81895 48.3215 12.8054 46.0493C15.0269 44.3591 15.5633 41.2389 14.0337 38.9039C11.9774 35.7648 13.7754 31.5319 17.4506 30.7736C20.1815 30.2102 22.0437 27.6312 21.6863 24.8658C21.2063 21.1528 24.6041 18.1155 28.2403 19.0071L28.3775 19.0407C31.0908 19.7061 33.8618 18.1833 34.7548 15.5362C35.9558 11.9759 40.3934 10.7531 43.3032 13.1303C45.4742 14.904 48.6699 14.7586 50.6374 12.7615Z" fill="#ED4743"/>
<path d="M38.2266 55.9802C37.6402 55.8697 37.0715 55.6567 36.5204 55.341C35.9693 55.0252 35.4949 54.5714 35.097 53.9793C34.6999 53.3826 34.4294 52.6226 34.2854 51.6995C34.1422 50.7717 34.1845 49.6451 34.4123 48.3199C34.6305 47.0506 34.9428 45.9464 35.3493 45.0074C35.7565 44.0637 36.2442 43.2948 36.8123 42.7006C37.3813 42.1018 38.0155 41.6823 38.7149 41.4422C39.4191 41.203 40.1748 41.1527 40.9821 41.2915C41.7847 41.4294 42.471 41.7131 43.0409 42.1426C43.6164 42.5682 44.0535 43.0998 44.3522 43.7372C44.651 44.3747 44.795 45.0745 44.7841 45.8365L43.0762 45.5429C43.0282 44.8717 42.8121 44.2844 42.4278 43.7812C42.0435 43.2779 41.4733 42.9613 40.7174 42.8314C39.6068 42.6405 38.6488 42.973 37.8434 43.8291C37.0428 44.686 36.4901 45.9866 36.1854 47.731L36.2974 47.7503C36.6269 47.3986 36.9954 47.1136 37.4029 46.8954C37.8158 46.6733 38.2548 46.5229 38.7199 46.4444C39.185 46.3658 39.6625 46.3686 40.1525 46.4528C40.9738 46.594 41.6898 46.9284 42.3005 47.4562C42.912 47.9793 43.3613 48.6354 43.6485 49.4247C43.9364 50.2092 44.0009 51.0634 43.8421 51.9874C43.6897 52.874 43.3518 53.6519 42.8284 54.321C42.3058 54.9854 41.6479 55.4729 40.8547 55.7833C40.067 56.0899 39.1909 56.1555 38.2266 55.9802ZM38.4913 54.4402C39.0792 54.5413 39.6318 54.485 40.149 54.2712C40.6708 54.0582 41.1096 53.7277 41.4653 53.2796C41.8256 52.8322 42.0579 52.3053 42.1622 51.6986C42.2641 51.106 42.2237 50.5442 42.0411 50.0131C41.8641 49.4782 41.5694 49.0264 41.1571 48.6577C40.7496 48.2898 40.2518 48.0553 39.6638 47.9542C39.2205 47.878 38.7923 47.8957 38.3792 48.0072C37.9668 48.1141 37.59 48.2944 37.2485 48.5479C36.9117 48.8023 36.628 49.1115 36.3973 49.4754C36.1674 49.8346 36.0155 50.2289 35.9417 50.6582C35.8439 51.2275 35.8854 51.7823 36.0664 52.3227C36.252 52.8639 36.5521 53.3262 36.9666 53.7097C37.3857 54.0941 37.894 54.3376 38.4913 54.4402ZM64.1917 43.4388C62.2434 43.7938 58.9452 43.856 56.1376 43.7792C56.2608 44.1251 56.3862 44.6946 56.4074 45.0432C59.2837 45.1926 62.7362 45.1773 65.112 44.8145L64.1917 43.4388ZM55.6929 43.2969L54.6087 49.6044C54.1106 52.5019 53.2276 56.1044 50.3722 58.3126C50.7129 58.5741 51.157 59.178 51.2965 59.547C54.4786 57.0906 55.5585 52.9334 56.0836 49.8782L57.0662 44.1621C57.3292 44.1667 57.4644 44.0885 57.5079 43.9539L55.6929 43.2969ZM55.6134 48.6001L55.3728 49.9996L64.7158 51.6056L64.9563 50.2061L55.6134 48.6001ZM60.0542 50.1549L58.2212 60.8185L59.6798 61.0692L61.5128 50.4056L60.0542 50.1549ZM45.9155 50.8294L46.0855 52.3198C48.0495 52.1094 50.6421 51.7839 53.0934 51.4544L53.1498 50.0639C50.4783 50.3758 47.728 50.6742 45.9155 50.8294ZM47.3259 44.3954L47.0853 45.7948L53.6294 46.9197L53.8699 45.5202L47.3259 44.3954ZM50.8256 40.918L48.01 57.2977C47.9592 57.5934 47.8471 57.6553 47.5711 57.6079C47.3312 57.5869 46.5033 57.4446 45.6 57.2691C45.7328 57.6774 45.8446 58.3257 45.823 58.6873C47.1402 58.934 47.9552 59.0335 48.5083 58.8851C49.0581 58.7564 49.3263 58.3763 49.4686 57.5485L52.2842 41.1687L50.8256 40.918Z" fill="white"/>
</svg>
